<?xml version="1.0" encoding="UTF-8" standalone="no"?><!DOCTYPE svg PUBLIC "-//W3C//DTD SVG 1.1//EN" "http://www.w3.org/Graphics/SVG/1.1/DTD/svg11.dtd"><svg width="100%" height="100%" viewBox="0 0 1083 124" version="1.1" xmlns="http://www.w3.org/2000/svg" xmlns:xlink="http://www.w3.org/1999/xlink" xml:space="preserve" xmlns:serif="http://www.serif.com/" style="fill-rule:evenodd;clip-rule:evenodd;stroke-linejoin:round;stroke-miterlimit:2;"><path d="M75.106,20.579l-51.108,0l14.906,33.089l29.567,-0.082l0,19.329l-20.804,0.082l22.114,48.815l-23.998,-0.082l-45.784,-101.233l7.699,-18.92l67.407,0.082l0,18.92Z" style="fill:#8c817c;fill-rule:nonzero;"/><path d="M123.508,1.718l-44.156,0l16.15,120.269l62.024,0l2.234,-14.604c0.172,-1.203 1.031,-1.89 2.234,-1.89l0.515,0c1.203,0 2.062,0.687 2.234,1.89l2.234,14.604l62.196,0l15.979,-120.269l-44.156,0l-2.577,90.889c0,1.374 -0.687,2.062 -2.062,2.062c-1.374,0 -2.577,-0.687 -2.577,-2.062l-6.701,-90.889l-49.654,0l-6.701,90.889c0,1.374 -1.031,2.062 -2.405,2.062c-1.374,0 -2.234,-0.687 -2.234,-2.062l-2.577,-90.889Z" style="fill:#463e39;fill-rule:nonzero;"/><path d="M307.691,123.705c27.834,0 41.407,-13.401 41.407,-41.235l0,-41.235c0,-27.834 -13.573,-41.235 -41.407,-41.235l-17.868,0c-27.834,0 -41.235,13.401 -41.235,41.235l0,41.235c0,27.834 13.401,41.235 41.235,41.235l17.868,0Zm-11.855,-95.184c0,-2.062 1.031,-2.921 3.093,-2.921c2.062,0 2.921,0.859 2.921,2.921l0,65.804c0,2.062 -0.859,2.921 -2.921,2.921c-2.062,0 -3.093,-0.859 -3.093,-2.921l0,-65.804Z" style="fill:#463e39;fill-rule:nonzero;"/><path d="M403.218,82.813c0,-1.374 0.687,-2.062 2.062,-2.062c1.374,0 2.062,0.687 2.234,2.062l2.577,39.173l46.561,0l-4.811,-34.191c-1.031,-7.732 -4.639,-12.714 -10.824,-14.604c10.309,-5.67 15.463,-16.666 15.463,-32.988l0,-0.687c0,-25.428 -12.37,-37.799 -37.799,-37.799l-62.711,0l0,120.269l47.248,0l0,-39.173Zm0,-51.2c0,-2.062 1.031,-2.921 3.093,-2.921c2.062,0 2.921,0.859 2.921,2.921l0,21.648c0,2.062 -0.859,2.921 -2.921,2.921c-2.062,0 -3.093,-0.859 -3.093,-2.921l0,-21.648Z" style="fill:#463e39;fill-rule:nonzero;"/><path d="M510.085,50.169l0,-48.451l-48.279,0l0,120.269l48.279,0l0,-41.579c0,-1.374 0.687,-2.062 2.062,-2.062c1.374,0 2.405,0.687 2.577,2.062l6.701,41.579l53.262,0l-14.432,-57.729l12.714,-62.54l-53.262,0l-5.154,48.451c-0.172,1.374 -0.687,2.062 -2.062,2.062l-0.344,0c-1.374,0 -2.062,-0.687 -2.062,-2.062Z" style="fill:#463e39;fill-rule:nonzero;"/><path d="M677.431,79.205c0,-8.762 -1.89,-13.745 -10.996,-17.697l-40.719,-18.212c-0.687,-0.172 -1.203,-1.031 -1.203,-2.062l0,-12.027c0,-1.89 1.031,-2.749 3.093,-2.749c2.062,0 2.921,1.031 2.921,3.093l0,14.432l47.077,0l0,-2.749c0,-27.662 -13.745,-41.235 -41.235,-41.235l-17.868,0c-27.49,0 -41.063,13.058 -41.235,39.345c0,8.591 1.374,17.181 10.481,20.274l41.235,20.446c1.203,0.515 1.546,1.89 1.546,3.093l0,10.481c0,2.062 -1.031,2.921 -3.093,2.921c-2.062,0 -2.921,-1.031 -2.921,-3.093l0,-14.432l-47.248,0l0,2.577c0,27.834 13.573,41.407 41.407,41.407l17.868,0c27.834,0 40.891,-13.401 40.891,-41.235l0,-2.577Zm-100.166,-39.517l0,-1.031l0,1.031Z" style="fill:#463e39;fill-rule:nonzero;"/><path d="M759.213,83.157c16.666,0 24.913,-8.247 24.913,-24.913l0,-31.613c0,-16.666 -8.247,-24.913 -24.913,-24.913l-75.597,0l0,120.269l47.248,0l0,-38.83l28.349,0Zm-28.349,-51.544c0,-2.062 1.031,-2.921 3.093,-2.921c2.062,0 2.921,0.859 2.921,2.921l0,21.648c0,2.062 -0.859,2.921 -2.921,2.921c-2.062,0 -3.093,-0.859 -3.093,-2.921l0,-21.648Z" style="fill:#463e39;fill-rule:nonzero;"/><path d="M838.075,98.105l1.031,23.882l49.997,0l-16.15,-120.269l-77.144,0l-16.15,120.269l49.997,0l1.031,-23.882l7.388,0Zm-6.701,-26.115l0,-40.032c0,-2.062 0.859,-2.921 2.921,-2.921c2.062,0 3.093,0.859 3.093,2.921l0,40.032l-6.013,0Z" style="fill:#463e39;fill-rule:nonzero;"/><path d="M993.049,64.086l-47.248,0l0,29.38c0,2.062 -0.859,2.921 -2.921,2.921c-2.062,0 -3.093,-1.031 -3.093,-3.093l0,-63.742c0,-2.062 1.031,-3.093 3.093,-3.093c2.062,0 2.921,0.859 2.921,2.921l0,29.208l47.248,0l0,-17.353c0,-27.662 -13.573,-41.235 -41.235,-41.235l-17.868,0c-27.834,0 -41.407,13.573 -41.407,41.407l0,41.063c0,27.662 13.573,41.235 41.235,41.235l17.868,0c27.834,0 41.407,-13.573 41.407,-41.407l0,-18.212Z" style="fill:#463e39;fill-rule:nonzero;"/><path d="M1082.735,30.926l0,-29.208l-83.673,0l0,120.269l83.673,0l0,-29.208l-36.424,0l0,-17.353l36.424,0l0,-29.208l-36.424,0l0,-15.291l36.424,0Z" style="fill:#463e39;fill-rule:nonzero;"/></svg>