<?xml version="1.0" encoding="UTF-8" standalone="no"?>
<!DOCTYPE svg PUBLIC "-//W3C//DTD SVG 1.1//EN" "http://www.w3.org/Graphics/SVG/1.1/DTD/svg11.dtd">
<svg width="100%" height="100%" viewBox="0 0 1635 154" version="1.1" xmlns="http://www.w3.org/2000/svg" xmlns:xlink="http://www.w3.org/1999/xlink" xml:space="preserve" xmlns:serif="http://www.serif.com/" style="fill-rule:evenodd;clip-rule:evenodd;stroke-linejoin:round;stroke-miterlimit:2;">
    <g transform="matrix(1,0,0,1,-842.420817,-2068.960322)">
        <g transform="matrix(1,0,0,1,252.968395,1381.997252)">
            <path d="M679.003,713.233L618.066,713.233L635.839,752.686L671.093,752.588L671.093,775.635L646.288,775.733L672.656,833.936L644.042,833.838L589.452,713.135L598.632,690.576L679.003,690.674L679.003,713.233Z" style="fill:rgb(31,31,31);fill-rule:nonzero;"/>
        </g>
        <g transform="matrix(1,0,0,1,252.968395,1381.997252)">
            <rect x="695.312" y="690.576" width="27.148" height="143.164" style="fill:rgb(31,31,31);fill-rule:nonzero;"/>
        </g>
        <g transform="matrix(1,0,0,1,252.968395,1381.997252)">
            <path d="M840.038,811.182L840.038,833.74L746.679,833.74L736.425,811.279L791.015,690.576L819.921,690.576L765.331,811.279C777.896,811.279 789.387,811.247 799.804,811.182L840.038,811.182Z" style="fill:rgb(31,31,31);fill-rule:nonzero;"/>
        </g>
        <g transform="matrix(1,0,0,1,252.968395,1381.997252)">
            <path d="M1130.956,690.479L1130.956,833.74L1103.613,833.74L1103.613,715.967C1101.204,716.683 1097.965,717.741 1093.896,719.141C1089.827,720.541 1085.221,722.25 1080.077,724.268C1074.934,726.286 1069.417,728.613 1063.525,731.25C1057.633,733.887 1051.659,736.817 1045.605,740.039C1039.55,743.262 1033.544,746.745 1027.587,750.488C1021.63,754.232 1016.047,758.22 1010.839,762.451C1015.201,767.985 1018.554,773.373 1020.898,778.613C1023.241,783.854 1024.788,788.493 1025.536,792.529C1026.285,796.566 1026.659,800.114 1026.659,803.174C1026.659,804.411 1026.546,806.364 1026.318,809.033C1026.09,811.703 1025.439,814.714 1024.365,818.067C1023.29,821.419 1021.972,824.333 1020.409,826.807C1018.847,829.281 1017.317,831.201 1015.82,832.569C1012.76,835.433 1009.244,837.516 1005.273,838.819C1001.301,840.121 997.265,840.772 993.163,840.772C988.736,840.772 984.472,840.072 980.37,838.672C976.269,837.272 972.818,835.238 970.019,832.569C966.829,829.574 964.241,825.57 962.255,820.557C960.269,815.544 959.277,809.912 959.277,803.662C959.277,797.412 960.497,790.755 962.939,783.692C965.38,776.628 969.4,769.548 974.999,762.451C970.377,758.675 965.478,755.095 960.302,751.709C955.126,748.324 949.82,745.117 944.384,742.09C938.948,739.063 933.463,736.231 927.929,733.594C922.395,730.957 916.975,728.548 911.669,726.367C906.363,724.186 901.22,722.217 896.24,720.459C891.259,718.701 886.588,717.204 882.226,715.967L882.226,833.74L854.882,833.74L854.882,690.479L879.687,690.479C884.7,691.846 890.234,693.555 896.288,695.606C902.343,697.656 908.674,699.984 915.283,702.588C921.891,705.192 928.661,708.073 935.595,711.231C942.529,714.388 949.348,717.79 956.054,721.436C962.76,725.082 969.254,728.955 975.536,733.057C981.819,737.158 987.63,741.423 992.968,745.85C999.153,740.707 1006.217,735.563 1014.159,730.42C1022.102,725.277 1030.842,720.313 1040.38,715.528C1049.918,710.742 1060.204,706.218 1071.24,701.953C1082.275,697.689 1093.945,693.864 1106.249,690.479L1130.956,690.479ZM1001.757,804.346C1001.757,799.789 1000.976,795.443 999.413,791.309C997.851,787.175 995.702,783.154 992.968,779.248C990.234,783.154 988.085,787.175 986.523,791.309C984.96,795.443 984.179,799.789 984.179,804.346C984.179,805.908 984.293,807.471 984.521,809.033C984.749,810.596 985.172,812.028 985.79,813.33C986.409,814.632 987.304,815.69 988.476,816.504C989.648,817.318 991.178,817.725 993.066,817.725C994.889,817.725 996.37,817.302 997.509,816.455C998.648,815.609 999.527,814.535 1000.146,813.233C1000.764,811.931 1001.187,810.482 1001.415,808.887C1001.643,807.292 1001.757,805.778 1001.757,804.346Z" style="fill:rgb(31,31,31);fill-rule:nonzero;"/>
        </g>
        <g transform="matrix(1,0,0,1,252.968395,1381.997252)">
            <path d="M1371.288,690.576L1371.288,833.74L1344.628,833.74L1344.628,819.873C1344.628,812.972 1344.091,806.136 1343.017,799.365C1341.943,792.595 1340.299,785.954 1338.085,779.444C1337.63,778.011 1336.881,775.912 1335.839,773.145C1334.797,770.378 1333.398,767.22 1331.64,763.672C1329.882,760.124 1327.701,756.315 1325.097,752.246C1322.493,748.177 1319.352,744.141 1315.673,740.137C1311.995,736.133 1307.747,732.276 1302.929,728.565C1298.111,724.854 1292.577,721.582 1286.327,718.75C1280.077,715.918 1273.095,713.656 1265.38,711.963C1257.665,710.27 1249.088,709.424 1239.648,709.424C1231.445,709.424 1224.137,710.124 1217.724,711.524C1211.311,712.923 1205.696,714.844 1200.878,717.285C1196.06,719.727 1191.975,722.608 1188.622,725.928C1185.269,729.248 1182.551,732.862 1180.468,736.768C1178.385,740.674 1176.838,744.776 1175.829,749.072C1174.82,753.369 1174.283,757.699 1174.218,762.061L1174.218,762.744C1174.218,766.52 1174.706,770.427 1175.683,774.463C1176.659,778.5 1178.222,782.471 1180.37,786.377C1182.519,790.283 1185.221,793.962 1188.476,797.412C1191.731,800.863 1195.572,803.874 1199.999,806.445C1204.426,809.017 1209.439,811.052 1215.038,812.549C1220.637,814.046 1226.822,814.795 1233.593,814.795C1241.21,814.795 1248.746,813.721 1256.2,811.572C1263.655,809.424 1270.816,806.12 1277.685,801.66C1284.553,797.201 1291.015,791.52 1297.07,784.619C1303.124,777.718 1308.528,769.548 1313.281,760.108L1333.495,770.264C1322.363,792.399 1308.333,809.115 1291.406,820.41C1274.478,831.706 1255.11,837.354 1233.3,837.354L1226.366,837.354C1223.567,837.354 1220.409,837.175 1216.894,836.817C1213.378,836.459 1209.57,835.824 1205.468,834.912C1201.366,834.001 1197.102,832.634 1192.675,830.811C1188.248,828.988 1183.74,826.628 1179.15,823.731C1174.56,820.834 1170.051,817.204 1165.624,812.842C1158.528,805.876 1153.206,798.128 1149.658,789.6C1146.109,781.071 1144.335,772.217 1144.335,763.037L1144.335,761.572C1144.465,755.583 1145.426,749.577 1147.216,743.555C1149.006,737.533 1151.643,731.755 1155.126,726.221C1158.609,720.687 1162.955,715.528 1168.163,710.742C1173.372,705.957 1179.491,701.807 1186.523,698.291C1193.554,694.776 1201.48,692.009 1210.302,689.99C1219.124,687.972 1228.906,686.963 1239.648,686.963C1249.153,686.963 1257.958,687.695 1266.064,689.16C1274.169,690.625 1281.64,692.627 1288.476,695.166C1295.312,697.705 1301.562,700.7 1307.226,704.151C1312.89,707.601 1318.033,711.328 1322.656,715.332C1327.278,719.336 1331.396,723.503 1335.009,727.832C1338.622,732.162 1341.829,736.507 1344.628,740.869L1344.628,690.576L1371.288,690.576Z" style="fill:rgb(31,31,31);fill-rule:nonzero;"/>
        </g>
        <g transform="matrix(1.021989,0,0,1.021989,221.430573,1363.620355)">
            <path d="M1425.792,693.74L1388.792,693.74L1402.792,833.74L1450.992,833.74L1453.592,816.74C1453.792,815.34 1454.792,814.54 1456.192,814.54L1456.792,814.54C1458.192,814.54 1459.192,815.34 1459.392,816.74L1461.992,833.74L1510.192,833.74L1524.192,693.74L1487.192,693.74L1484.192,799.54C1484.192,801.14 1483.392,801.94 1481.792,801.94C1480.192,801.94 1478.992,801.14 1478.992,799.54L1474.192,693.74L1438.792,693.74L1433.992,799.54C1433.992,801.14 1432.992,801.94 1431.392,801.94C1429.792,801.94 1428.792,801.14 1428.792,799.54L1425.792,693.74Z" style="fill:rgb(99,118,141);fill-rule:nonzero;"/>
        </g>
        <g transform="matrix(1.021989,0,0,1.021989,221.430573,1363.620355)">
            <path d="M1573.392,835.74C1597.392,835.74 1609.192,823.94 1609.192,799.94L1609.192,727.54C1609.192,703.54 1597.392,691.74 1573.392,691.74L1563.992,691.74C1539.992,691.74 1528.192,703.54 1528.192,727.54L1528.192,799.94C1528.192,823.94 1539.992,835.74 1563.992,835.74L1573.392,835.74ZM1565.192,724.94C1565.192,722.54 1566.392,721.54 1568.792,721.54C1571.192,721.54 1572.192,722.54 1572.192,724.94L1572.192,801.54C1572.192,803.94 1571.192,804.94 1568.792,804.94C1566.392,804.94 1565.192,803.94 1565.192,801.54L1565.192,724.94Z" style="fill:rgb(99,118,141);fill-rule:nonzero;"/>
        </g>
        <g transform="matrix(1.021989,0,0,1.021989,221.430573,1363.620355)">
            <path d="M1651.992,788.14C1651.992,786.54 1652.792,785.74 1654.392,785.74C1655.992,785.74 1656.792,786.54 1656.992,788.14L1659.992,833.74L1698.792,833.74L1693.192,793.94C1691.992,785.54 1688.392,780.14 1681.992,777.54C1691.392,771.94 1695.992,761.74 1695.992,746.74L1695.992,729.54C1695.992,705.54 1684.192,693.74 1660.192,693.74L1614.992,693.74L1614.992,833.74L1651.992,833.74L1651.992,788.14ZM1651.992,728.54C1651.992,726.14 1653.192,725.14 1655.592,725.14C1657.992,725.14 1658.992,726.14 1658.992,728.54L1658.992,753.74C1658.992,756.14 1657.992,757.14 1655.592,757.14C1653.192,757.14 1651.992,756.14 1651.992,753.74L1651.992,728.54Z" style="fill:rgb(99,118,141);fill-rule:nonzero;"/>
        </g>
        <g transform="matrix(1.021989,0,0,1.021989,221.430573,1363.620355)">
            <path d="M1740.592,750.14L1740.592,693.74L1703.592,693.74L1703.592,833.74L1740.592,833.74L1740.592,785.34C1740.592,783.74 1741.392,782.94 1742.992,782.94C1744.592,782.94 1745.592,783.74 1745.792,785.34L1752.592,833.74L1795.592,833.74L1776.792,766.54L1793.592,693.74L1750.592,693.74L1745.792,750.14C1745.592,751.74 1744.992,752.54 1743.392,752.54L1742.992,752.54C1741.392,752.54 1740.592,751.74 1740.592,750.14Z" style="fill:rgb(99,118,141);fill-rule:nonzero;"/>
        </g>
        <g transform="matrix(1.021989,0,0,1.021989,221.430573,1363.620355)">
            <path d="M1879.392,784.94C1879.392,774.74 1875.392,766.94 1866.992,761.34L1836.992,741.34C1836.192,740.94 1835.592,740.14 1835.592,738.94L1835.592,725.74C1835.592,723.54 1836.792,722.54 1839.192,722.54C1841.592,722.54 1842.592,723.74 1842.592,726.14L1842.592,742.94L1879.592,742.94L1879.592,727.54C1879.592,703.54 1867.792,691.74 1843.792,691.74L1834.392,691.74C1810.392,691.74 1798.592,703.34 1798.592,726.74L1798.592,736.74C1798.592,746.94 1802.592,755.34 1810.792,761.54L1828.192,774.74L1840.792,783.94C1841.992,784.94 1842.592,786.14 1842.592,787.54L1842.592,800.74C1842.592,803.14 1841.392,804.14 1838.992,804.14C1836.592,804.14 1835.592,802.94 1835.592,800.54L1835.592,783.74L1798.592,783.74L1798.592,799.14C1798.592,823.14 1810.392,834.94 1834.392,834.94L1843.792,834.94C1867.792,834.94 1879.392,823.14 1879.392,799.14L1879.392,784.94Z" style="fill:rgb(99,118,141);fill-rule:nonzero;"/>
        </g>
        <g transform="matrix(1.021989,0,0,1.021989,221.430573,1363.620355)">
            <path d="M1938.592,788.54C1957.992,788.54 1967.592,778.94 1967.592,759.54L1967.592,722.74C1967.592,703.34 1957.992,693.74 1938.592,693.74L1886.592,693.74L1886.592,833.74L1923.592,833.74L1923.592,788.54L1938.592,788.54ZM1923.592,728.54C1923.592,726.14 1924.792,725.14 1927.192,725.14C1929.592,725.14 1930.592,726.14 1930.592,728.54L1930.592,753.74C1930.592,756.14 1929.592,757.14 1927.192,757.14C1924.792,757.14 1923.592,756.14 1923.592,753.74L1923.592,728.54Z" style="fill:rgb(99,118,141);fill-rule:nonzero;"/>
        </g>
        <g transform="matrix(1.021989,0,0,1.021989,221.430573,1363.620355)">
            <path d="M2011.192,805.94L2012.392,833.74L2051.392,833.74L2037.392,693.74L1976.392,693.74L1962.392,833.74L2001.392,833.74L2002.592,805.94L2011.192,805.94ZM2003.392,775.54L2003.392,728.94C2003.392,726.54 2004.392,725.54 2006.792,725.54C2009.192,725.54 2010.392,726.54 2010.392,728.94L2010.392,775.54L2003.392,775.54Z" style="fill:rgb(99,118,141);fill-rule:nonzero;"/>
        </g>
        <g transform="matrix(1.021989,0,0,1.021989,221.430573,1363.620355)">
            <path d="M2136.392,766.34L2099.392,766.34L2099.392,800.54C2099.392,802.94 2098.392,803.94 2095.992,803.94C2093.592,803.94 2092.392,802.74 2092.392,800.34L2092.392,726.14C2092.392,723.74 2093.592,722.54 2095.992,722.54C2098.392,722.54 2099.392,723.54 2099.392,725.94L2099.392,759.94L2136.392,759.94L2136.392,727.54C2136.392,703.54 2124.592,691.74 2100.592,691.74L2091.192,691.74C2067.192,691.74 2055.392,703.54 2055.392,727.54L2055.392,799.94C2055.392,823.94 2067.192,835.74 2091.192,835.74L2100.592,835.74C2124.592,835.74 2136.392,823.94 2136.392,799.94L2136.392,766.34Z" style="fill:rgb(99,118,141);fill-rule:nonzero;"/>
        </g>
        <g transform="matrix(1.021989,0,0,1.021989,221.430573,1363.620355)">
            <path d="M2207.392,727.74L2207.392,693.74L2142.392,693.74L2142.392,833.74L2207.392,833.74L2207.392,799.74L2179.392,799.74L2179.392,779.54L2207.392,779.54L2207.392,745.54L2179.392,745.54L2179.392,727.74L2207.392,727.74Z" style="fill:rgb(99,118,141);fill-rule:nonzero;"/>
        </g>
    </g>
</svg>
