<?xml version="1.0" encoding="UTF-8" standalone="no"?><!DOCTYPE svg PUBLIC "-//W3C//DTD SVG 1.1//EN" "http://www.w3.org/Graphics/SVG/1.1/DTD/svg11.dtd"><svg width="100%" height="100%" viewBox="0 0 1353 473" version="1.1" xmlns="http://www.w3.org/2000/svg" xmlns:xlink="http://www.w3.org/1999/xlink" xml:space="preserve" xmlns:serif="http://www.serif.com/" style="fill-rule:evenodd;clip-rule:evenodd;stroke-linejoin:round;stroke-miterlimit:2;"><g><path d="M154.957,45.456l-105.445,0l30.755,68.269l61.003,-0.169l0,39.88l-42.922,0.169l45.625,100.713l-49.512,-0.169l-94.461,-208.862l15.884,-39.035l139.073,0.169l0,39.035Z" style="fill:#463e39;fill-rule:nonzero;"/><rect x="183.177" y="6.252" width="46.977" height="247.728" style="fill:#463e39;fill-rule:nonzero;"/><path d="M433.609,214.946l0,39.035l-161.547,0l-17.743,-38.866l94.461,-208.862l50.019,0l-94.461,208.862c21.742,0 41.626,-0.056 59.651,-0.169l69.621,0Z" style="fill:#463e39;fill-rule:nonzero;"/><path d="M937.007,6.083l0,247.897l-47.315,0l0,-203.793c-4.168,1.239 -9.773,3.07 -16.814,5.492c-7.041,2.422 -15.011,5.379 -23.911,8.872c-8.9,3.492 -18.447,7.52 -28.643,12.082c-10.195,4.563 -20.531,9.632 -31.008,15.208c-10.477,5.576 -20.869,11.603 -31.177,18.081c-10.308,6.478 -19.968,13.378 -28.98,20.7c7.548,9.576 13.35,18.898 17.405,27.967c4.056,9.069 6.731,17.095 8.027,24.08c1.296,6.985 1.943,13.124 1.943,18.419c0,2.14 -0.197,5.52 -0.591,10.139c-0.394,4.619 -1.521,9.829 -3.38,15.631c-1.859,5.802 -4.14,10.843 -6.844,15.124c-2.704,4.281 -5.351,7.604 -7.942,9.97c-5.295,4.957 -11.378,8.562 -18.25,10.815c-6.872,2.253 -13.857,3.38 -20.954,3.38c-7.661,0 -15.039,-1.211 -22.137,-3.633c-7.097,-2.422 -13.068,-5.943 -17.912,-10.561c-5.52,-5.182 -9.998,-12.11 -13.434,-20.785c-3.436,-8.674 -5.154,-18.419 -5.154,-29.234c0,-10.815 2.112,-22.334 6.337,-34.557c4.225,-12.223 11.181,-24.474 20.869,-36.754c-7.998,-6.534 -16.476,-12.73 -25.432,-18.588c-8.956,-5.858 -18.137,-11.406 -27.544,-16.645c-9.407,-5.238 -18.898,-10.139 -28.474,-14.701c-9.576,-4.563 -18.954,-8.731 -28.136,-12.505c-9.181,-3.774 -18.081,-7.182 -26.699,-10.223c-8.618,-3.042 -16.701,-5.633 -24.249,-7.773l0,203.793l-47.315,0l0,-247.897l42.922,0c8.674,2.366 18.25,5.323 28.727,8.872c10.477,3.549 21.433,7.576 32.867,12.082c11.434,4.506 23.151,9.491 35.148,14.955c11.998,5.464 23.798,11.35 35.402,17.659c11.603,6.309 22.841,13.012 33.712,20.109c10.871,7.097 20.926,14.476 30.163,22.137c10.702,-8.9 22.925,-17.799 36.669,-26.699c13.744,-8.9 28.868,-17.49 45.372,-25.77c16.504,-8.28 34.303,-16.11 53.398,-23.489c19.095,-7.379 39.288,-13.997 60.58,-19.855l42.753,0Zm-223.564,197.033c0,-7.886 -1.352,-15.406 -4.056,-22.559c-2.704,-7.154 -6.421,-14.11 -11.153,-20.869c-4.732,6.759 -8.449,13.716 -11.153,20.869c-2.704,7.154 -4.056,14.673 -4.056,22.559c0,2.704 0.197,5.407 0.591,8.111c0.394,2.704 1.127,5.182 2.197,7.435c1.07,2.253 2.619,4.084 4.647,5.492c2.028,1.408 4.675,2.112 7.942,2.112c3.154,0 5.717,-0.732 7.689,-2.197c1.971,-1.465 3.492,-3.323 4.563,-5.576c1.07,-2.253 1.802,-4.76 2.197,-7.52c0.394,-2.76 0.591,-5.379 0.591,-7.858Z" style="fill:#463e39;fill-rule:nonzero;"/><path d="M1352.873,6.252l0,247.728l-46.132,0l0,-23.995c0,-11.941 -0.929,-23.77 -2.788,-35.486c-1.859,-11.716 -4.703,-23.207 -8.534,-34.472c-0.789,-2.478 -2.084,-6.112 -3.887,-10.899c-1.802,-4.788 -4.225,-10.252 -7.266,-16.391c-3.042,-6.14 -6.816,-12.73 -11.322,-19.771c-4.506,-7.041 -9.942,-14.026 -16.307,-20.954c-6.365,-6.928 -13.716,-13.603 -22.052,-20.024c-8.336,-6.421 -17.912,-12.082 -28.727,-16.983c-10.815,-4.9 -22.897,-8.815 -36.247,-11.744c-13.35,-2.929 -28.192,-4.394 -44.527,-4.394c-14.195,0 -26.84,1.211 -37.937,3.633c-11.097,2.422 -20.813,5.745 -29.149,9.97c-8.336,4.225 -15.406,9.21 -21.207,14.955c-5.802,5.745 -10.505,11.998 -14.11,18.757c-3.605,6.759 -6.281,13.857 -8.027,21.292c-1.746,7.435 -2.676,14.927 -2.788,22.475l0,1.183c0,6.534 0.845,13.293 2.535,20.278c1.69,6.985 4.394,13.857 8.111,20.616c3.718,6.759 8.393,13.124 14.026,19.095c5.633,5.971 12.279,11.181 19.94,15.631c7.661,4.45 16.335,7.97 26.023,10.561c9.688,2.591 20.391,3.887 32.107,3.887c13.181,0 26.22,-1.859 39.119,-5.576c12.899,-3.718 25.291,-9.435 37.176,-17.152c11.885,-7.717 23.066,-17.546 33.543,-29.487c10.477,-11.941 19.827,-26.08 28.051,-42.415l34.979,17.574c-19.264,38.303 -43.541,67.227 -72.831,86.772c-29.29,19.546 -62.805,29.318 -100.545,29.318l-11.998,0c-4.844,0 -10.308,-0.31 -16.391,-0.929c-6.083,-0.62 -12.674,-1.718 -19.771,-3.295c-7.097,-1.577 -14.476,-3.943 -22.137,-7.097c-7.661,-3.154 -15.462,-7.238 -23.404,-12.251c-7.942,-5.013 -15.744,-11.294 -23.404,-18.842c-12.279,-12.054 -21.489,-25.46 -27.629,-40.218c-6.14,-14.758 -9.21,-30.079 -9.21,-45.963l0,-2.535c0.225,-10.364 1.887,-20.757 4.985,-31.177c3.098,-10.421 7.661,-20.419 13.688,-29.994c6.027,-9.576 13.547,-18.504 22.559,-26.784c9.012,-8.28 19.602,-15.462 31.769,-21.545c12.167,-6.083 25.882,-10.871 41.147,-14.364c15.265,-3.492 32.191,-5.238 50.779,-5.238c16.448,0 31.684,1.267 45.71,3.802c14.026,2.535 26.953,5.999 38.781,10.392c11.829,4.394 22.644,9.576 32.445,15.546c9.801,5.971 18.701,12.42 26.699,19.348c7.998,6.928 15.124,14.138 21.376,21.63c6.252,7.492 11.801,15.011 16.645,22.559l0,-87.026l46.132,0Z" style="fill:#463e39;fill-rule:nonzero;"/><path d="M112.857,318.87l-55.588,0l20.332,151.408l78.083,0l2.812,-18.385c0.216,-1.514 1.298,-2.379 2.812,-2.379l0.649,0c1.514,0 2.596,0.865 2.812,2.379l2.812,18.385l78.3,0l20.116,-151.408l-55.588,0l-3.244,114.421c0,1.73 -0.865,2.596 -2.596,2.596c-1.73,0 -3.244,-0.865 -3.244,-2.596l-8.436,-114.421l-62.51,0l-8.436,114.421c0,1.73 -1.298,2.596 -3.028,2.596c-1.73,0 -2.812,-0.865 -2.812,-2.596l-3.244,-114.421Z" style="fill:#463e39;fill-rule:nonzero;"/><path d="M344.727,472.441c35.04,0 52.128,-16.871 52.128,-51.911l0,-51.911c0,-35.04 -17.087,-51.911 -52.128,-51.911l-22.495,0c-35.04,0 -51.911,16.871 -51.911,51.911l0,51.911c0,35.04 16.871,51.911 51.911,51.911l22.495,0Zm-14.925,-119.829c0,-2.596 1.298,-3.677 3.893,-3.677c2.596,0 3.677,1.081 3.677,3.677l0,82.842c0,2.596 -1.081,3.677 -3.677,3.677c-2.596,0 -3.893,-1.081 -3.893,-3.677l0,-82.842Z" style="fill:#463e39;fill-rule:nonzero;"/><path d="M464.989,420.962c0,-1.73 0.865,-2.596 2.596,-2.596c1.73,0 2.596,0.865 2.812,2.596l3.244,49.316l58.617,0l-6.056,-43.043c-1.298,-9.733 -5.84,-16.006 -13.627,-18.385c12.978,-7.138 19.467,-20.981 19.467,-41.529l0,-0.865c0,-32.012 -15.573,-47.585 -47.585,-47.585l-78.949,0l0,151.408l59.482,0l0,-49.316Zm0,-64.457c0,-2.596 1.298,-3.677 3.893,-3.677c2.596,0 3.677,1.081 3.677,3.677l0,27.253c0,2.596 -1.081,3.677 -3.677,3.677c-2.596,0 -3.893,-1.081 -3.893,-3.677l0,-27.253Z" style="fill:#463e39;fill-rule:nonzero;"/><path d="M599.526,379.866l0,-60.996l-60.78,0l0,151.408l60.78,0l0,-52.344c0,-1.73 0.865,-2.596 2.596,-2.596c1.73,0 3.028,0.865 3.244,2.596l8.436,52.344l67.052,0l-18.169,-72.676l16.006,-78.732l-67.052,0l-6.489,60.996c-0.216,1.73 -0.865,2.596 -2.596,2.596l-0.433,0c-1.73,0 -2.596,-0.865 -2.596,-2.596Z" style="fill:#463e39;fill-rule:nonzero;"/><path d="M810.2,416.42c0,-11.031 -2.379,-17.304 -13.843,-22.279l-51.262,-22.928c-0.865,-0.216 -1.514,-1.298 -1.514,-2.596l0,-15.141c0,-2.379 1.298,-3.461 3.893,-3.461c2.596,0 3.677,1.298 3.677,3.893l0,18.169l59.266,0l0,-3.461c0,-34.824 -17.304,-51.911 -51.911,-51.911l-22.495,0c-34.608,0 -51.695,16.439 -51.911,49.532c0,10.815 1.73,21.63 13.194,25.523l51.911,25.739c1.514,0.649 1.947,2.379 1.947,3.893l0,13.194c0,2.596 -1.298,3.677 -3.893,3.677c-2.596,0 -3.677,-1.298 -3.677,-3.893l0,-18.169l-59.482,0l0,3.244c0,35.04 17.087,52.128 52.128,52.128l22.495,0c35.04,0 51.479,-16.871 51.479,-51.911l0,-3.244Zm-126.101,-49.748l0,-1.298l0,1.298Z" style="fill:#463e39;fill-rule:nonzero;"/><path d="M913.157,421.395c20.981,0 31.363,-10.382 31.363,-31.363l0,-39.799c0,-20.981 -10.382,-31.363 -31.363,-31.363l-95.171,0l0,151.408l59.482,0l0,-48.883l35.689,0Zm-35.689,-64.889c0,-2.596 1.298,-3.677 3.893,-3.677c2.596,0 3.677,1.081 3.677,3.677l0,27.253c0,2.596 -1.081,3.677 -3.677,3.677c-2.596,0 -3.893,-1.081 -3.893,-3.677l0,-27.253Z" style="fill:#463e39;fill-rule:nonzero;"/><path d="M1012.438,440.213l1.298,30.065l62.943,0l-20.332,-151.408l-97.118,0l-20.332,151.408l62.943,0l1.298,-30.065l9.301,0Zm-8.436,-32.877l0,-50.397c0,-2.596 1.081,-3.677 3.677,-3.677c2.596,0 3.893,1.081 3.893,3.677l0,50.397l-7.57,0Z" style="fill:#463e39;fill-rule:nonzero;"/><path d="M1207.538,397.386l-59.482,0l0,36.987c0,2.596 -1.081,3.677 -3.677,3.677c-2.596,0 -3.893,-1.298 -3.893,-3.893l0,-80.246c0,-2.596 1.298,-3.893 3.893,-3.893c2.596,0 3.677,1.081 3.677,3.677l0,36.771l59.482,0l0,-21.846c0,-34.824 -17.087,-51.911 -51.911,-51.911l-22.495,0c-35.04,0 -52.128,17.087 -52.128,52.128l0,51.695c0,34.824 17.087,51.911 51.911,51.911l22.495,0c35.04,0 52.128,-17.087 52.128,-52.128l0,-22.928Z" style="fill:#463e39;fill-rule:nonzero;"/><path d="M1320.445,355.64l0,-36.771l-105.337,0l0,151.408l105.337,0l0,-36.771l-45.855,0l0,-21.846l45.855,0l0,-36.771l-45.855,0l0,-19.25l45.855,0Z" style="fill:#463e39;fill-rule:nonzero;"/></g></svg>