<?xml version="1.0" encoding="UTF-8" standalone="no"?>
<!DOCTYPE svg PUBLIC "-//W3C//DTD SVG 1.1//EN" "http://www.w3.org/Graphics/SVG/1.1/DTD/svg11.dtd">
<svg width="100%" height="100%" viewBox="0 0 2030 400" version="1.1" xmlns="http://www.w3.org/2000/svg" xmlns:xlink="http://www.w3.org/1999/xlink" xml:space="preserve" xmlns:serif="http://www.serif.com/" style="fill-rule:evenodd;clip-rule:evenodd;stroke-linejoin:round;stroke-miterlimit:2;">
    <g transform="matrix(1,0,0,1,-809.898531,-3588.948074)">
        <g transform="matrix(2.595569,0,0,2.595569,-1782.811924,-395.463424)">
            <path d="M1088.449,1561.351L1027.512,1561.351L1045.285,1600.805L1080.539,1600.707L1080.539,1623.754L1055.734,1623.851L1082.102,1682.055L1053.488,1681.957L998.899,1561.254L1008.078,1538.695L1088.449,1538.793L1088.449,1561.351Z" style="fill:white;fill-rule:nonzero;"/>
        </g>
        <g transform="matrix(2.595569,0,0,2.595569,-1782.811924,-395.463424)">
            <rect x="1104.758" y="1538.695" width="27.148" height="143.164" style="fill:white;fill-rule:nonzero;"/>
        </g>
        <g transform="matrix(2.595569,0,0,2.595569,-1782.811924,-395.463424)">
            <path d="M1249.484,1659.301L1249.484,1681.859L1156.125,1681.859L1145.871,1659.398L1200.461,1538.695L1229.367,1538.695L1174.777,1659.398C1187.343,1659.398 1198.833,1659.366 1209.25,1659.301L1249.484,1659.301Z" style="fill:white;fill-rule:nonzero;"/>
        </g>
        <g transform="matrix(2.595569,0,0,2.595569,-1782.811924,-395.463424)">
            <path d="M1540.402,1538.597L1540.402,1681.859L1513.059,1681.859L1513.059,1564.086C1510.65,1564.802 1507.411,1565.86 1503.342,1567.26C1499.273,1568.659 1494.667,1570.368 1489.524,1572.387C1484.38,1574.405 1478.863,1576.732 1472.971,1579.369C1467.079,1582.006 1461.106,1584.935 1455.051,1588.158C1448.996,1591.381 1442.99,1594.864 1437.033,1598.607C1431.076,1602.351 1425.494,1606.338 1420.285,1610.57C1424.647,1616.104 1428,1621.491 1430.344,1626.732C1432.688,1631.973 1434.234,1636.612 1434.983,1640.648C1435.731,1644.685 1436.106,1648.233 1436.106,1651.293C1436.106,1652.53 1435.992,1654.483 1435.764,1657.152C1435.536,1659.821 1434.885,1662.833 1433.811,1666.185C1432.736,1669.538 1431.418,1672.452 1429.856,1674.926C1428.293,1677.4 1426.763,1679.32 1425.266,1680.687C1422.206,1683.552 1418.69,1685.635 1414.719,1686.937C1410.747,1688.239 1406.711,1688.89 1402.609,1688.89C1398.182,1688.89 1393.918,1688.191 1389.816,1686.791C1385.715,1685.391 1382.264,1683.357 1379.465,1680.687C1376.275,1677.693 1373.687,1673.689 1371.701,1668.676C1369.716,1663.663 1368.723,1658.031 1368.723,1651.781C1368.723,1645.531 1369.943,1638.874 1372.385,1631.81C1374.826,1624.747 1378.846,1617.666 1384.445,1610.57C1379.823,1606.794 1374.924,1603.213 1369.748,1599.828C1364.572,1596.443 1359.266,1593.236 1353.83,1590.209C1348.394,1587.181 1342.909,1584.349 1337.375,1581.713C1331.841,1579.076 1326.421,1576.667 1321.115,1574.486C1315.809,1572.305 1310.666,1570.336 1305.686,1568.578C1300.705,1566.82 1296.034,1565.323 1291.672,1564.086L1291.672,1681.859L1264.328,1681.859L1264.328,1538.597L1289.133,1538.597C1294.146,1539.965 1299.68,1541.674 1305.734,1543.724C1311.789,1545.775 1318.121,1548.103 1324.729,1550.707C1331.337,1553.311 1338.108,1556.192 1345.041,1559.349C1351.975,1562.507 1358.794,1565.909 1365.5,1569.555C1372.206,1573.2 1378.7,1577.074 1384.983,1581.176C1391.265,1585.277 1397.076,1589.541 1402.414,1593.969C1408.599,1588.825 1415.663,1583.682 1423.606,1578.539C1431.548,1573.396 1440.289,1568.431 1449.826,1563.646C1459.364,1558.861 1469.65,1554.336 1480.686,1550.072C1491.721,1545.808 1503.391,1541.983 1515.695,1538.597L1540.402,1538.597ZM1411.203,1652.465C1411.203,1647.907 1410.422,1643.562 1408.859,1639.428C1407.297,1635.293 1405.149,1631.273 1402.414,1627.367C1399.68,1631.273 1397.531,1635.293 1395.969,1639.428C1394.406,1643.562 1393.625,1647.907 1393.625,1652.465C1393.625,1654.027 1393.739,1655.59 1393.967,1657.152C1394.195,1658.715 1394.618,1660.147 1395.236,1661.449C1395.855,1662.751 1396.75,1663.809 1397.922,1664.623C1399.094,1665.437 1400.624,1665.844 1402.512,1665.844C1404.335,1665.844 1405.816,1665.42 1406.955,1664.574C1408.094,1663.728 1408.973,1662.653 1409.592,1661.351C1410.21,1660.049 1410.634,1658.601 1410.861,1657.006C1411.089,1655.411 1411.203,1653.897 1411.203,1652.465Z" style="fill:white;fill-rule:nonzero;"/>
        </g>
        <g transform="matrix(2.595569,0,0,2.595569,-1782.811924,-395.463424)">
            <path d="M1780.734,1538.695L1780.734,1681.859L1754.074,1681.859L1754.074,1667.992C1754.074,1661.091 1753.537,1654.255 1752.463,1647.484C1751.389,1640.713 1749.745,1634.073 1747.531,1627.562C1747.076,1626.13 1746.327,1624.03 1745.285,1621.264C1744.244,1618.497 1742.844,1615.339 1741.086,1611.791C1739.328,1608.243 1737.147,1604.434 1734.543,1600.365C1731.939,1596.296 1728.798,1592.26 1725.119,1588.256C1721.441,1584.252 1717.193,1580.394 1712.375,1576.683C1707.557,1572.972 1702.024,1569.701 1695.774,1566.869C1689.524,1564.037 1682.541,1561.775 1674.826,1560.082C1667.111,1558.389 1658.534,1557.543 1649.094,1557.543C1640.891,1557.543 1633.583,1558.243 1627.17,1559.642C1620.757,1561.042 1615.142,1562.963 1610.324,1565.404C1605.507,1567.846 1601.421,1570.726 1598.068,1574.047C1594.716,1577.367 1591.997,1580.98 1589.914,1584.887C1587.831,1588.793 1586.285,1592.894 1585.275,1597.191C1584.266,1601.488 1583.729,1605.818 1583.664,1610.18L1583.664,1610.863C1583.664,1614.639 1584.152,1618.545 1585.129,1622.582C1586.106,1626.618 1587.668,1630.59 1589.816,1634.496C1591.965,1638.402 1594.667,1642.081 1597.922,1645.531C1601.177,1648.982 1605.018,1651.993 1609.445,1654.564C1613.872,1657.136 1618.886,1659.17 1624.484,1660.668C1630.083,1662.165 1636.268,1662.914 1643.039,1662.914C1650.656,1662.914 1658.192,1661.84 1665.647,1659.691C1673.101,1657.543 1680.262,1654.239 1687.131,1649.779C1693.999,1645.319 1700.461,1639.639 1706.516,1632.738C1712.57,1625.837 1717.974,1617.666 1722.727,1608.226L1742.941,1618.383C1731.809,1640.518 1717.779,1657.234 1700.852,1668.529C1683.925,1679.825 1664.556,1685.472 1642.746,1685.472L1635.813,1685.472C1633.013,1685.472 1629.856,1685.293 1626.34,1684.935C1622.824,1684.577 1619.016,1683.943 1614.914,1683.031C1610.813,1682.12 1606.548,1680.752 1602.121,1678.93C1597.694,1677.107 1593.186,1674.747 1588.596,1671.849C1584.006,1668.952 1579.497,1665.323 1575.07,1660.961C1567.974,1653.995 1562.652,1646.247 1559.104,1637.719C1555.555,1629.19 1553.781,1620.336 1553.781,1611.156L1553.781,1609.691C1553.912,1603.702 1554.872,1597.696 1556.662,1591.674C1558.453,1585.652 1561.089,1579.874 1564.572,1574.34C1568.055,1568.806 1572.401,1563.646 1577.609,1558.861C1582.818,1554.076 1588.938,1549.926 1595.969,1546.41C1603,1542.894 1610.927,1540.127 1619.748,1538.109C1628.57,1536.091 1638.352,1535.082 1649.094,1535.082C1658.599,1535.082 1667.404,1535.814 1675.51,1537.279C1683.615,1538.744 1691.086,1540.746 1697.922,1543.285C1704.758,1545.824 1711.008,1548.819 1716.672,1552.269C1722.336,1555.72 1727.479,1559.447 1732.102,1563.451C1736.724,1567.455 1740.842,1571.622 1744.455,1575.951C1748.068,1580.28 1751.275,1584.626 1754.074,1588.988L1754.074,1538.695L1780.734,1538.695Z" style="fill:white;fill-rule:nonzero;"/>
        </g>
    </g>
</svg>
