<?xml version="1.0" encoding="UTF-8" standalone="no"?><!DOCTYPE svg PUBLIC "-//W3C//DTD SVG 1.1//EN" "http://www.w3.org/Graphics/SVG/1.1/DTD/svg11.dtd"><svg width="100%" height="100%" viewBox="0 0 2030 400" version="1.1" xmlns="http://www.w3.org/2000/svg" xmlns:xlink="http://www.w3.org/1999/xlink" xml:space="preserve" xmlns:serif="http://www.serif.com/" style="fill-rule:evenodd;clip-rule:evenodd;stroke-linejoin:round;stroke-miterlimit:2;"><path d="M232.435,68.184l-158.168,0l46.132,102.403l91.504,-0.253l0,59.82l-64.382,0.253l68.438,151.07l-74.268,-0.253l-141.692,-313.293l23.827,-58.552l208.609,0.253l0,58.552Z" style="fill:#f4f5f6;fill-rule:nonzero;"/><rect x="274.765" y="9.379" width="70.466" height="371.592" style="fill:#f4f5f6;fill-rule:nonzero;"/><path d="M650.413,322.418l0,58.552l-242.321,0l-26.615,-58.299l141.692,-313.293l75.028,0l-141.692,313.293c32.614,0 62.439,-0.084 89.476,-0.253l104.431,0Z" style="fill:#f4f5f6;fill-rule:nonzero;"/><path d="M1405.511,9.125l0,371.846l-70.973,0l0,-305.689c-6.252,1.859 -14.659,4.605 -25.221,8.238c-10.561,3.633 -22.517,8.069 -35.867,13.307c-13.35,5.238 -27.671,11.28 -42.964,18.123c-15.293,6.844 -30.797,14.448 -46.512,22.813c-15.715,8.365 -31.304,17.405 -46.766,27.122c-15.462,9.716 -29.952,20.067 -43.471,31.051c11.322,14.364 20.024,28.347 26.108,41.95c6.083,13.603 10.097,25.643 12.04,36.12c1.943,10.477 2.915,19.686 2.915,27.629c0,3.211 -0.296,8.28 -0.887,15.208c-0.591,6.928 -2.281,14.744 -5.069,23.446c-2.788,8.703 -6.21,16.265 -10.266,22.686c-4.056,6.421 -8.027,11.406 -11.913,14.955c-7.942,7.435 -17.067,12.843 -27.375,16.222c-10.308,3.38 -20.785,5.069 -31.431,5.069c-11.491,0 -22.559,-1.817 -33.205,-5.45c-10.646,-3.633 -19.602,-8.914 -26.868,-15.842c-8.28,-7.773 -14.997,-18.166 -20.151,-31.177c-5.154,-13.012 -7.731,-27.629 -7.731,-43.851c0,-16.222 3.168,-33.501 9.505,-51.835c6.337,-18.335 16.772,-36.711 31.304,-55.131c-11.998,-9.801 -24.714,-19.095 -38.148,-27.882c-13.434,-8.787 -27.206,-17.109 -41.316,-24.967c-14.11,-7.858 -28.347,-15.208 -42.71,-22.052c-14.364,-6.844 -28.431,-13.096 -42.203,-18.757c-13.772,-5.661 -27.122,-10.773 -40.049,-15.335c-12.927,-4.563 -25.052,-8.449 -36.373,-11.66l0,305.689l-70.973,0l0,-371.846l64.382,0c13.012,3.549 27.375,7.984 43.091,13.307c15.715,5.323 32.149,11.364 49.301,18.123c17.152,6.759 34.726,14.237 52.723,22.432c17.997,8.196 35.698,17.025 53.103,26.488c17.405,9.463 34.261,19.517 50.568,30.163c16.307,10.646 31.388,21.714 45.245,33.205c16.053,-13.35 34.388,-26.699 55.004,-40.049c20.616,-13.35 43.302,-26.235 68.058,-38.655c24.756,-12.42 51.455,-24.164 80.098,-35.233c28.643,-11.068 58.933,-20.996 90.87,-29.783l64.129,0Zm-335.346,295.55c0,-11.829 -2.028,-23.108 -6.083,-33.839c-4.056,-10.73 -9.632,-21.165 -16.729,-31.304c-7.097,10.139 -12.674,20.574 -16.729,31.304c-4.056,10.73 -6.083,22.01 -6.083,33.839c0,4.056 0.296,8.111 0.887,12.167c0.591,4.056 1.69,7.773 3.295,11.153c1.605,3.38 3.929,6.126 6.971,8.238c3.042,2.112 7.013,3.168 11.913,3.168c4.732,0 8.576,-1.098 11.533,-3.295c2.957,-2.197 5.238,-4.985 6.844,-8.365c1.605,-3.38 2.704,-7.14 3.295,-11.28c0.591,-4.14 0.887,-8.069 0.887,-11.787Z" style="fill:#f4f5f6;fill-rule:nonzero;"/><path d="M2029.309,9.379l0,371.592l-69.198,0l0,-35.993c0,-17.912 -1.394,-35.655 -4.182,-53.229c-2.788,-17.574 -7.055,-34.81 -12.8,-51.709c-1.183,-3.718 -3.126,-9.167 -5.83,-16.349c-2.704,-7.182 -6.337,-15.377 -10.899,-24.587c-4.563,-9.21 -10.223,-19.095 -16.983,-29.656c-6.759,-10.561 -14.913,-21.038 -24.46,-31.431c-9.548,-10.392 -20.574,-20.405 -33.078,-30.037c-12.505,-9.632 -26.868,-18.123 -43.091,-25.474c-16.222,-7.351 -34.346,-13.223 -54.37,-17.616c-20.024,-4.394 -42.288,-6.59 -66.79,-6.59c-21.292,0 -40.26,1.817 -56.905,5.45c-16.645,3.633 -31.219,8.618 -43.724,14.955c-12.505,6.337 -23.108,13.814 -31.811,22.432c-8.703,8.618 -15.758,17.997 -21.165,28.136c-5.407,10.139 -9.421,20.785 -12.04,31.938c-2.619,11.153 -4.013,22.39 -4.182,33.712l0,1.774c0,9.801 1.267,19.94 3.802,30.417c2.535,10.477 6.59,20.785 12.167,30.924c5.576,10.139 12.589,19.686 21.038,28.643c8.449,8.956 18.419,16.772 29.91,23.446c11.491,6.675 24.502,11.956 39.035,15.842c14.532,3.887 30.586,5.83 48.16,5.83c19.771,0 39.331,-2.788 58.679,-8.365c19.348,-5.576 37.937,-14.152 55.764,-25.728c17.828,-11.575 34.599,-26.319 50.315,-44.231c15.715,-17.912 29.741,-39.119 42.077,-63.622l52.469,26.361c-28.896,57.454 -65.312,100.84 -109.247,130.159c-43.935,29.318 -94.208,43.978 -150.817,43.978l-17.997,0c-7.266,0 -15.462,-0.465 -24.587,-1.394c-9.125,-0.929 -19.011,-2.577 -29.656,-4.943c-10.646,-2.366 -21.714,-5.914 -33.205,-10.646c-11.491,-4.732 -23.193,-10.857 -35.106,-18.377c-11.913,-7.52 -23.615,-16.94 -35.106,-28.262c-18.419,-18.081 -32.233,-38.19 -41.443,-60.327c-9.21,-22.137 -13.814,-45.118 -13.814,-68.945l0,-3.802c0.338,-15.546 2.83,-31.135 7.477,-46.766c4.647,-15.631 11.491,-30.628 20.531,-44.992c9.041,-14.364 20.32,-27.755 33.839,-40.176c13.519,-12.42 29.403,-23.193 47.653,-32.318c18.25,-9.125 38.824,-16.307 61.721,-21.545c22.897,-5.238 48.287,-7.858 76.169,-7.858c24.671,0 47.526,1.901 68.565,5.703c21.038,3.802 40.429,8.998 58.172,15.589c17.743,6.59 33.965,14.364 48.667,23.32c14.701,8.956 28.051,18.63 40.049,29.023c11.998,10.392 22.686,21.207 32.064,32.445c9.379,11.237 17.701,22.517 24.967,33.839l0,-130.539l69.198,0Z" style="fill:#f4f5f6;fill-rule:nonzero;"/></svg>