<?xml version="1.0" encoding="UTF-8" standalone="no"?><!DOCTYPE svg PUBLIC "-//W3C//DTD SVG 1.1//EN" "http://www.w3.org/Graphics/SVG/1.1/DTD/svg11.dtd"><svg width="100%" height="100%" viewBox="0 0 2008 396" version="1.1" xmlns="http://www.w3.org/2000/svg" xmlns:xlink="http://www.w3.org/1999/xlink" xml:space="preserve" xmlns:serif="http://www.serif.com/" style="fill-rule:evenodd;clip-rule:evenodd;stroke-linejoin:round;stroke-miterlimit:2;"><g><path d="M229.98,67.464l-156.497,0l45.645,101.322l90.537,-0.251l0,59.188l-63.702,0.251l67.715,149.475l-73.483,-0.251l-140.195,-309.984l23.575,-57.934l206.405,0.251l0,57.934Z" style="fill:#edebeb;fill-rule:nonzero;"/><rect x="271.863" y="9.279" width="69.721" height="367.667" style="fill:#edebeb;fill-rule:nonzero;"/><path d="M643.543,319.013l0,57.934l-239.761,0l-26.334,-57.683l140.195,-309.984l74.236,0l-140.195,309.984c32.269,0 61.779,-0.084 88.531,-0.251l103.328,0Z" style="fill:#edebeb;fill-rule:nonzero;"/><path d="M1390.665,9.029l0,367.918l-70.223,0l0,-302.46c-6.186,1.839 -14.504,4.556 -24.954,8.151c-10.45,3.595 -22.279,7.984 -35.488,13.167c-13.209,5.183 -27.379,11.16 -42.51,17.932c-15.131,6.771 -30.472,14.295 -46.021,22.572c-15.549,8.276 -30.973,17.221 -46.272,26.835c-15.299,9.614 -29.636,19.855 -43.012,30.723c11.202,14.212 19.813,28.047 25.832,41.507c6.019,13.459 9.99,25.372 11.913,35.738c1.923,10.366 2.884,19.479 2.884,27.337c0,3.177 -0.293,8.193 -0.878,15.048c-0.585,6.855 -2.257,14.588 -5.016,23.199c-2.759,8.611 -6.145,16.093 -10.157,22.446c-4.013,6.354 -7.942,11.286 -11.787,14.797c-7.858,7.357 -16.887,12.707 -27.086,16.051c-10.199,3.344 -20.565,5.016 -31.099,5.016c-11.369,0 -22.321,-1.797 -32.854,-5.392c-10.533,-3.595 -19.395,-8.82 -26.584,-15.675c-8.193,-7.691 -14.839,-17.974 -19.938,-30.848c-5.1,-12.874 -7.649,-27.337 -7.649,-43.388c0,-16.051 3.135,-33.147 9.405,-51.288c6.27,-18.141 16.594,-36.324 30.973,-54.548c-11.871,-9.697 -24.453,-18.893 -37.745,-27.588c-13.292,-8.694 -26.919,-16.929 -40.88,-24.703c-13.961,-7.775 -28.047,-15.048 -42.259,-21.819c-14.212,-6.771 -28.131,-12.958 -41.758,-18.559c-13.627,-5.601 -26.835,-10.659 -39.626,-15.173c-12.791,-4.514 -24.787,-8.36 -35.989,-11.537l0,302.46l-70.223,0l0,-367.918l63.702,0c12.874,3.511 27.086,7.9 42.635,13.167c15.549,5.267 31.809,11.244 48.78,17.932c16.971,6.688 34.359,14.086 52.166,22.195c17.807,8.109 35.32,16.845 52.542,26.208c17.221,9.363 33.899,19.311 50.034,29.845c16.135,10.533 31.057,21.485 44.767,32.854c15.884,-13.209 34.025,-26.417 54.423,-39.626c20.398,-13.209 42.844,-25.957 67.339,-38.246c24.494,-12.289 50.912,-23.909 79.252,-34.861c28.34,-10.951 58.31,-20.774 89.91,-29.469l63.451,0Zm-331.803,292.428c0,-11.704 -2.006,-22.864 -6.019,-33.481c-4.013,-10.617 -9.53,-20.941 -16.553,-30.973c-7.022,10.032 -12.54,20.356 -16.553,30.973c-4.013,10.617 -6.019,21.777 -6.019,33.481c0,4.013 0.293,8.025 0.878,12.038c0.585,4.013 1.672,7.691 3.26,11.035c1.588,3.344 3.887,6.061 6.897,8.151c3.01,2.09 6.939,3.135 11.787,3.135c4.682,0 8.485,-1.087 11.411,-3.26c2.926,-2.174 5.183,-4.932 6.771,-8.276c1.588,-3.344 2.675,-7.064 3.26,-11.16c0.585,-4.096 0.878,-7.984 0.878,-11.662Z" style="fill:#edebeb;fill-rule:nonzero;"/><path d="M2007.874,9.279l0,367.667l-68.467,0l0,-35.613c0,-17.723 -1.379,-35.279 -4.138,-52.667c-2.759,-17.389 -6.98,-34.443 -12.665,-51.162c-1.17,-3.678 -3.093,-9.07 -5.768,-16.176c-2.675,-7.106 -6.27,-15.215 -10.784,-24.327c-4.514,-9.112 -10.115,-18.893 -16.803,-29.343c-6.688,-10.45 -14.755,-20.816 -24.202,-31.099c-9.447,-10.283 -20.356,-20.189 -32.729,-29.719c-12.373,-9.53 -26.584,-17.932 -42.635,-25.205c-16.051,-7.273 -33.983,-13.083 -53.796,-17.43c-19.813,-4.347 -41.841,-6.521 -66.085,-6.521c-21.067,0 -39.835,1.797 -56.304,5.392c-16.469,3.595 -30.89,8.527 -43.262,14.797c-12.373,6.27 -22.864,13.668 -31.475,22.195c-8.611,8.527 -15.591,17.807 -20.941,27.838c-5.35,10.032 -9.321,20.565 -11.913,31.6c-2.592,11.035 -3.971,22.154 -4.138,33.356l0,1.756c0,9.697 1.254,19.729 3.762,30.096c2.508,10.366 6.521,20.565 12.038,30.597c5.518,10.032 12.456,19.479 20.816,28.34c8.36,8.861 18.225,16.594 29.594,23.199c11.369,6.604 24.244,11.829 38.623,15.675c14.379,3.846 30.263,5.768 47.651,5.768c19.562,0 38.915,-2.759 58.059,-8.276c19.144,-5.518 37.536,-14.003 55.175,-25.456c17.639,-11.453 34.234,-26.041 49.783,-43.764c15.549,-17.723 29.427,-38.706 41.632,-62.95l51.915,26.083c-28.591,56.847 -64.622,99.775 -108.093,128.784c-43.471,29.009 -93.213,43.513 -149.224,43.513l-17.807,0c-7.189,0 -15.299,-0.46 -24.327,-1.379c-9.029,-0.92 -18.81,-2.55 -29.343,-4.891c-10.533,-2.341 -21.485,-5.852 -32.854,-10.533c-11.369,-4.682 -22.948,-10.742 -34.735,-18.183c-11.787,-7.44 -23.366,-16.762 -34.735,-27.964c-18.225,-17.89 -31.893,-37.787 -41.005,-59.689c-9.112,-21.903 -13.668,-44.642 -13.668,-68.217l0,-3.762c0.334,-15.382 2.801,-30.806 7.398,-46.272c4.598,-15.466 11.369,-30.305 20.314,-44.516c8.945,-14.212 20.105,-27.462 33.481,-39.751c13.376,-12.289 29.092,-22.948 47.15,-31.977c18.057,-9.029 38.414,-16.135 61.069,-21.318c22.655,-5.183 47.777,-7.775 75.364,-7.775c24.411,0 47.024,1.881 67.84,5.643c20.816,3.762 40.002,8.903 57.558,15.424c17.556,6.521 33.607,14.212 48.153,23.073c14.546,8.861 27.755,18.434 39.626,28.716c11.871,10.283 22.446,20.983 31.726,32.102c9.279,11.119 17.514,22.279 24.703,33.481l0,-129.16l68.467,0Z" style="fill:#edebeb;fill-rule:nonzero;"/></g></svg>